<svg width="160" height="28" viewBox="0 0 160 28" fill="none" xmlns="http://www.w3.org/2000/svg">
<path d="M7.79545 0.818181V27H0.6875V0.818181H7.79545ZM17.9652 27H10.2947L18.9368 0.818181H28.6527L37.2947 27H29.6243L23.897 8.02841H23.6925L17.9652 27ZM16.5334 16.6705H30.9538V21.9886H16.5334V16.6705ZM69.9517 27V0.818181H78.7983C80.8523 0.818181 82.5313 1.18892 83.8352 1.9304C85.1477 2.66335 86.1193 3.65625 86.75 4.90909C87.3807 6.16193 87.696 7.55966 87.696 9.10227C87.696 10.6449 87.3807 12.0469 86.75 13.3082C86.1278 14.5696 85.1648 15.5753 83.8608 16.3253C82.5568 17.0668 80.8864 17.4375 78.8494 17.4375H72.5085V14.625H78.7472C80.1534 14.625 81.2827 14.3821 82.1349 13.8963C82.9872 13.4105 83.6051 12.7543 83.9886 11.9276C84.3807 11.0923 84.5767 10.1506 84.5767 9.10227C84.5767 8.05398 84.3807 7.11648 83.9886 6.28977C83.6051 5.46307 82.983 4.81534 82.1222 4.34659C81.2614 3.86932 80.1193 3.63068 78.696 3.63068H73.1222V27H69.9517ZM92.3942 27V7.36364H95.3089V10.3295H95.5135C95.8714 9.35795 96.5192 8.5696 97.4567 7.96449C98.3942 7.35937 99.451 7.05682 100.627 7.05682C100.849 7.05682 101.126 7.06108 101.458 7.0696C101.79 7.07812 102.042 7.09091 102.212 7.10795V10.1761C102.11 10.1506 101.876 10.1122 101.509 10.0611C101.151 10.0014 100.772 9.97159 100.371 9.97159C99.4169 9.97159 98.5646 10.1719 97.8146 10.5724C97.0732 10.9645 96.4851 11.5099 96.0504 12.2088C95.6243 12.8991 95.4112 13.6875 95.4112 14.5739V27H92.3942ZM113.424 27.4091C111.532 27.4091 109.9 26.9915 108.528 26.1562C107.164 25.3125 106.112 24.1364 105.37 22.6278C104.637 21.1108 104.271 19.3466 104.271 17.3352C104.271 15.3239 104.637 13.5511 105.37 12.017C106.112 10.4744 107.143 9.27273 108.464 8.41193C109.793 7.54261 111.344 7.10795 113.117 7.10795C114.14 7.10795 115.15 7.27841 116.147 7.61932C117.144 7.96023 118.052 8.5142 118.87 9.28125C119.688 10.0398 120.34 11.0455 120.826 12.2983C121.312 13.5511 121.555 15.0937 121.555 16.9261V18.2045H106.418V15.5966H118.487C118.487 14.4886 118.265 13.5 117.822 12.6307C117.387 11.7614 116.765 11.0753 115.955 10.5724C115.154 10.0696 114.208 9.81818 113.117 9.81818C111.915 9.81818 110.876 10.1165 109.998 10.7131C109.129 11.3011 108.46 12.0682 107.991 13.0142C107.522 13.9602 107.288 14.9744 107.288 16.0568V17.7955C107.288 19.2784 107.543 20.5355 108.055 21.5668C108.575 22.5895 109.295 23.3693 110.215 23.9062C111.136 24.4347 112.205 24.6989 113.424 24.6989C114.217 24.6989 114.933 24.5881 115.572 24.3665C116.219 24.1364 116.778 23.7955 117.246 23.3438C117.715 22.8835 118.077 22.3125 118.333 21.6307L121.248 22.4489C120.941 23.4375 120.425 24.3068 119.701 25.0568C118.977 25.7983 118.082 26.3778 117.016 26.7955C115.951 27.2045 114.754 27.4091 113.424 27.4091ZM140.053 11.7614L137.343 12.5284C137.173 12.0767 136.921 11.6378 136.589 11.2116C136.265 10.777 135.822 10.419 135.259 10.1378C134.697 9.85653 133.977 9.71591 133.099 9.71591C131.897 9.71591 130.896 9.9929 130.094 10.5469C129.302 11.0923 128.906 11.7869 128.906 12.6307C128.906 13.3807 129.178 13.973 129.724 14.4077C130.269 14.8423 131.121 15.2045 132.281 15.4943L135.195 16.2102C136.951 16.6364 138.259 17.2884 139.12 18.1662C139.981 19.0355 140.411 20.1562 140.411 21.5284C140.411 22.6534 140.087 23.6591 139.44 24.5455C138.8 25.4318 137.906 26.1307 136.755 26.642C135.604 27.1534 134.266 27.4091 132.741 27.4091C130.738 27.4091 129.08 26.9744 127.768 26.1051C126.455 25.2358 125.624 23.9659 125.275 22.2955L128.138 21.5795C128.411 22.6364 128.927 23.429 129.685 23.9574C130.452 24.4858 131.454 24.75 132.69 24.75C134.096 24.75 135.212 24.4517 136.039 23.8551C136.874 23.25 137.292 22.5256 137.292 21.6818C137.292 21 137.053 20.429 136.576 19.9688C136.099 19.5 135.366 19.1506 134.377 18.9205L131.104 18.1534C129.306 17.7273 127.985 17.0668 127.141 16.1719C126.306 15.2685 125.888 14.1392 125.888 12.7841C125.888 11.6761 126.2 10.696 126.822 9.84375C127.452 8.99148 128.309 8.32244 129.391 7.83665C130.482 7.35085 131.718 7.10795 133.099 7.10795C135.042 7.10795 136.567 7.53409 137.675 8.38636C138.792 9.23864 139.585 10.3636 140.053 11.7614ZM158.862 11.7614L156.152 12.5284C155.981 12.0767 155.73 11.6378 155.397 11.2116C155.074 10.777 154.63 10.419 154.068 10.1378C153.505 9.85653 152.785 9.71591 151.907 9.71591C150.706 9.71591 149.704 9.9929 148.903 10.5469C148.11 11.0923 147.714 11.7869 147.714 12.6307C147.714 13.3807 147.987 13.973 148.532 14.4077C149.078 14.8423 149.93 15.2045 151.089 15.4943L154.004 16.2102C155.76 16.6364 157.068 17.2884 157.929 18.1662C158.789 19.0355 159.22 20.1562 159.22 21.5284C159.22 22.6534 158.896 23.6591 158.248 24.5455C157.609 25.4318 156.714 26.1307 155.564 26.642C154.413 27.1534 153.075 27.4091 151.549 27.4091C149.547 27.4091 147.889 26.9744 146.576 26.1051C145.264 25.2358 144.433 23.9659 144.083 22.2955L146.947 21.5795C147.22 22.6364 147.735 23.429 148.494 23.9574C149.261 24.4858 150.262 24.75 151.498 24.75C152.904 24.75 154.021 24.4517 154.848 23.8551C155.683 23.25 156.1 22.5256 156.1 21.6818C156.1 21 155.862 20.429 155.385 19.9688C154.907 19.5 154.174 19.1506 153.186 18.9205L149.913 18.1534C148.115 17.7273 146.794 17.0668 145.95 16.1719C145.115 15.2685 144.697 14.1392 144.697 12.7841C144.697 11.6761 145.008 10.696 145.63 9.84375C146.261 8.99148 147.118 8.32244 148.2 7.83665C149.291 7.35085 150.527 7.10795 151.907 7.10795C153.85 7.10795 155.376 7.53409 156.484 8.38636C157.6 9.23864 158.393 10.3636 158.862 11.7614Z" fill="black"/>
<path d="M53.1758 7.36364L56.0394 13.4489L59.0565 7.36364H66.0621L60.7951 17.1818L66.3178 27H59.3633L56.0394 20.7614L52.8178 27H45.761L51.3349 17.1818L46.119 7.36364H53.1758Z" fill="#E0135D"/>
</svg>
